<svg width="20" height="20" viewBox="0 0 20 20" fill="none" xmlns="http://www.w3.org/2000/svg">
<path d="M10 20C8.61667 20 7.31667 19.7375 6.1 19.2125C4.88333 18.6875 3.825 17.975 2.925 17.075C2.025 16.175 1.3125 15.1167 0.7875 13.9C0.2625 12.6833 0 11.3833 0 10C0 8.61667 0.2625 7.31667 0.7875 6.1C1.3125 4.88333 2.025 3.825 2.925 2.925C3.825 2.025 4.88333 1.3125 6.1 0.7875C7.31667 0.2625 8.61667 0 10 0C11.3833 0 12.6833 0.2625 13.9 0.7875C15.1167 1.3125 16.175 2.025 17.075 2.925C17.975 3.825 18.6875 4.88333 19.2125 6.1C19.7375 7.31667 20 8.61667 20 10C20 11.3833 19.7375 12.6833 19.2125 13.9C18.6875 15.1167 17.975 16.175 17.075 17.075C16.175 17.975 15.1167 18.6875 13.9 19.2125C12.6833 19.7375 11.3833 20 10 20ZM10 18C12.2333 18 14.125 17.225 15.675 15.675C17.225 14.125 18 12.2333 18 10C18 7.76667 17.225 5.875 15.675 4.325C14.125 2.775 12.2333 2 10 2C7.76667 2 5.875 2.775 4.325 4.325C2.775 5.875 2 7.76667 2 10C2 12.2333 2.775 14.125 4.325 15.675C5.875 17.225 7.76667 18 10 18ZM6 14V10.925L11.525 5.425C11.675 5.275 11.8417 5.16667 12.025 5.1C12.2083 5.03333 12.3917 5 12.575 5C12.775 5 12.9667 5.0375 13.15 5.1125C13.3333 5.1875 13.5 5.3 13.65 5.45L14.575 6.375C14.7083 6.525 14.8125 6.69167 14.8875 6.875C14.9625 7.05833 15 7.24167 15 7.425C15 7.60833 14.9667 7.79583 14.9 7.9875C14.8333 8.17917 14.725 8.35 14.575 8.5L9.075 14H6ZM7.5 12.5H8.45L11.475 9.45L11.025 8.975L10.55 8.525L7.5 11.55V12.5ZM11.025 8.975L10.55 8.525L11.475 9.45L11.025 8.975Z" fill="#1C1B1F"/>
</svg>
