<svg width="24" height="24" viewBox="0 0 24 24" fill="none" xmlns="http://www.w3.org/2000/svg">
<g id="COCO/Line/Close">
<path id="Vector (Stroke)" fill-rule="evenodd" clip-rule="evenodd" d="M15.3591 8.6413C15.652 8.93419 15.652 9.40907 15.3591 9.70196L13.061 12.0001L15.3591 14.2982C15.652 14.591 15.652 15.0659 15.3591 15.3588C15.0662 15.6517 14.5913 15.6517 14.2984 15.3588L12.0003 13.0607L9.70221 15.3588C9.40931 15.6517 8.93444 15.6517 8.64154 15.3588C8.34865 15.0659 8.34865 14.591 8.64154 14.2982L10.9396 12.0001L8.64154 9.70196C8.34865 9.40907 8.34865 8.93419 8.64154 8.6413C8.93444 8.34841 9.40931 8.34841 9.70221 8.6413L12.0003 10.9394L14.2984 8.6413C14.5913 8.34841 15.0662 8.34841 15.3591 8.6413Z" fill="#010D0B"/>
</g>
</svg>
